<?xml version="1.0" encoding="UTF-8"?>
<svg width="300px" height="300px" viewBox="0 0 300 300" version="1.1" xmlns="http://www.w3.org/2000/svg" xmlns:xlink="http://www.w3.org/1999/xlink">
    <g id="Artboard" fill="#d65200" stroke="#000000" stroke-width="0">
        <style type="text/css">
            #cyclone {
                animation: spinning 1.91s linear infinite;
                transform-origin: 52% 52%;
                opacity: 0.6;
            }
            @keyframes spinning {
                0% {
                    transform: rotate(0deg);
                }
                100% {
                    transform: rotate(360deg);
                }
            }

            #cyclone2 {
                animation: spinning2 1.01s -0.5s linear infinite;
                transform-origin: 52% 52%;
                opacity: 0.8;
            }
            @keyframes spinning2 {
                0% {
                    transform: rotate(0deg) scale(0.9);
                }
                100% {
                    transform: rotate(360deg) scale(0.9);
                }
            }
        </style>
        <path d="M204.017827,178.116363 C222.025757,182.125379 232.1817,183.588457 234.485658,182.505597 C236.789615,181.422737 242.142309,176.856895 250.543739,168.80807 L238.76651,190.828392 C215.600721,195.234961 201.602178,198.171003 196.770879,199.636521 C191.939581,201.102038 187.512477,202.667727 183.489568,204.333588 C183.489568,213.394151 184.033001,218.567536 185.119868,219.853745 C186.750168,221.783059 199.202055,226.023342 205.774344,228.014262 C212.346632,230.005181 216.516294,228.014262 224.093809,229.578448 C231.671324,231.142635 232.019923,226.023342 234.485658,226.023342 C236.951393,226.023342 252.110931,213.371612 254.566148,210.229715 C256.202959,208.135118 259.770086,200.70135 265.267528,187.928411 L267.90606,156.647684 L274.664669,187.928411 L261.419419,217.924432 C253.044033,228.925327 248.140611,234.709261 246.709153,235.276235 C244.561965,236.126696 228.67067,240.85682 224.093809,241.020601 C219.516948,241.184383 205.774344,241.020601 204.017827,240.85682 C202.26131,240.693039 185.552611,238.397095 176.900751,237.178502 C168.24889,235.959909 156.934457,231.482218 153.55966,229.578448 C151.309796,228.309269 145.337037,223.583151 135.641384,215.400096 L119.954441,208.168174 L111.374964,213.081419 C110.077563,225.348619 109.447895,231.482218 109.48596,231.482218 C109.543058,231.482218 116.626224,243.513383 121.644844,245.750726 C124.990591,247.242288 133.054528,249.83167 145.836655,253.518874 L176.900751,264.693567 L119.954441,259.385144 L94.7726889,247.970038 L84.7144129,210.229715 C87.9389513,201.702068 89.6023083,196.145525 89.7044838,193.560084 C89.8066593,190.974643 86.7539159,187.289814 80.5462537,182.505597 L67.1101761,197.438245 L67.1101761,226.023342 L77.9918664,251.830168 L58.3516326,231.482218 L54.4884973,204.333588 L60.9210458,182.505597 C74.0045178,164.015839 80.5462537,153.556374 80.5462537,151.127202 C80.5462537,148.698029 81.9356401,142.741799 84.7144129,133.258511 L80.5462537,124.708826 L74.7252557,124.708826 C63.2735865,126.862525 56.5280004,128.454259 54.4884973,129.484028 C52.4489943,130.513797 47.8556048,136.108907 40.7083287,146.269358 L29.7590224,171.753129 L29.7590224,148.087481 L40.7083287,124.708826 L67.1101761,112.353104 C84.7184198,108.993333 93.9392574,107.313448 94.7726889,107.313448 C95.6061203,107.313448 97.1193058,102.553773 99.3122453,93.0344225 L80.5462537,82.0776032 L54.4884973,82.0776032 L29.7590224,93.0344225 L10.9334472,129.484028 C16.321702,103.124753 19.411509,89.9451164 20.2028682,89.9451164 C20.9942274,89.9451164 27.8293809,82.2964792 40.7083287,66.9992048 L70.3196888,59.8754692 L106.922557,63.7806767 L132.803009,72.2807764 L153.55966,84.5974312 L165.58181,72.2807764 L137.734479,36.4712705 L188.039382,72.2807764 L199.202055,100.18821 L209.688567,89.9451164 L205.774344,57.2835173 L188.039382,38.7987682 L212.21741,52.6946355 L220.917353,82.0776032 L216.516294,107.313448 L212.21741,117.355195 L224.093809,112.353104 L234.485658,94.9547208 L234.485658,75.1867676 L218.53426,49.3303571 L199.202055,27.267963 L218.53426,36.4712705 L238.76651,52.6946355 C250.157075,66.9240758 256.002615,74.4214531 256.303131,75.1867676 C256.603647,75.9520821 258.309076,85.1694137 261.419419,102.838762 C255.942011,129.850157 252.316784,144.933063 250.543739,148.087481 C248.770693,151.241899 243.948998,155.324847 236.078653,160.336325 L204.017827,178.116363 Z" id="cyclone"></path>
        <path d="M137.437359,92.3403024 C138.276718,92.1582803 139.122735,91.9941204 139.974993,91.8482405 L153.55966,82.0776032 L144.833466,63.7806767 L121.644844,47.140902 L94.7726889,29.2015897 L141.971049,38.9924063 L161.678105,59.8754692 L176.900751,82.0776032 L183.489568,97.3706759 L195.132358,82.0776032 L189.509701,57.8948728 L159.238708,29.2015897 L191.111452,45.4595141 L209,66.9992048 L210.548837,88.3566936 L204.017827,121.750244 L214.45705,124.708826 L244.852757,93.0344225 L242.628938,63.7806767 L234.485658,42.0411427 L246.709153,49.3303571 L261.419419,72.2807764 L265.267528,94.9547208 L265.267528,110.782712 L259.074685,124.708826 C247.308947,137.140178 240.539556,144.933063 238.76651,148.087481 C236.993465,151.241899 228.143765,156.506376 212.21741,163.880913 C207.970316,171.222216 205.822628,175.173503 205.774344,175.734773 C205.72606,176.296043 206.801278,179.332759 209,184.84492 C223.686481,184.368231 232.1817,183.588457 234.485658,182.505597 C236.789615,181.422737 242.653952,180.060332 252.078668,178.418382 L230.198087,197.438245 C212.74458,197.438245 201.602178,198.171003 196.770879,199.636521 C191.939581,201.102038 187.512477,202.667727 183.489568,204.333588 C183.489568,213.394151 184.033001,218.567536 185.119868,219.853745 C186.750168,221.783059 199.202055,226.023342 205.774344,228.014262 C212.346632,230.005181 236.311293,225.887915 238.76651,222.746019 C240.403322,220.651421 251.917863,210.922776 273.310135,193.560084 L261.419419,217.924432 C242.036656,236.108535 231.629545,245.484073 230.198087,246.051047 C228.050899,246.901508 195.688313,247.806256 191.111452,247.970038 C186.534591,248.133819 156.934457,231.482218 153.55966,229.578448 C151.309796,228.309269 145.337037,223.583151 135.641384,215.400096 L119.954441,208.168174 L111.66921,210.229715 C110.175645,224.398051 109.447895,231.482218 109.48596,231.482218 C109.543058,231.482218 116.626224,238.619477 121.644844,240.85682 C124.990591,242.348382 138.335011,247.719607 161.678105,256.970497 L119.954441,259.385144 L94.7726889,247.970038 L84.7144129,210.229715 C88.8026288,200.545953 90.8978245,194.411351 91,191.825911 C91.1021755,189.24047 89.0069798,183.139491 84.7144129,173.522974 L67.1101761,197.438245 L63.5137923,219.853745 L70.3196888,247.970038 L51.0002993,226.023342 L48.9928514,204.333588 L54.4884973,173.522974 L84.7144129,150 L91,132.481482 L80.5462537,124.708826 L74.7252557,124.708826 C63.2735865,126.862525 56.5280004,128.454259 54.4884973,129.484028 C52.4489943,130.513797 47.8556048,136.108907 40.7083287,146.269358 L29.7590224,171.753129 L29.7590224,148.087481 L40.7083287,124.708826 L74.7252557,110.782712 C87.2567796,111.82964 93.9392574,112.353104 94.7726889,112.353104 C95.6061203,112.353104 100.510544,108.320112 109.48596,100.254128 L80.5462537,82.0776032 L54.4884973,82.0776032 L29.7590224,93.0344225 L5.80938684,121.750244 C13.472549,100.546826 17.6998096,89.9451164 18.4911689,89.9451164 C19.2825281,89.9451164 26.6882481,82.2964792 40.7083287,66.9992048 L70.3196888,59.8754692 L96.8740914,66.9992048 L117.633748,76.8679607 L137.437359,92.3403024 Z" id="cyclone2"></path>
    </g>
</svg>