<?xml version="1.0" encoding="UTF-8" standalone="no"?>
<!-- Created with Keyshape -->
<svg xmlns="http://www.w3.org/2000/svg" xmlns:xlink="http://www.w3.org/1999/xlink" viewBox="0 0 660 660" fill-rule="evenodd" clip-rule="evenodd" stroke-linejoin="round" stroke-miterlimit="1.41">
    <style>
        @keyframes a0_t { 
            0% { 
                transform: translate(330px,330px) rotate(0deg) translate(-297.235px,-296.553353px); 
            } 
            100% { 
                transform: translate(330px,330px) rotate(360deg) translate(-297.235px,-296.553353px); 
            } 
        }
    </style>
    <path d="M236.1,497.01C234.92,497.01,233.14,497.51,232.68,496.94C223.85,486.02,209.36,480.79,202.98,467.43C187.52,453.87,180.98,434.71,171.6,417.35C171.51,417.19,170.91,417.31,170.69,417.88C170.43,416.36,170.75,415.08,170.46,414.14C170.3,413.59,169.92,413.14,169.07,412.82C168.26,413.66,167.92,414.46,168.2,415.32C168.43,416.17,169.17,417.13,170.54,418.33C168.57,424.81,173.32,430.47,175.47,436.33C182.41,455.25,191.91,472.77,204.94,488.6C215.31,501.18,227.46,511.84,238.24,523.89C242.87,529.06,249.34,531.79,254.02,536.96C255.109,538.146,256.226,539.306,257.372,540.438C258.517,541.569,259.69,542.673,260.89,543.747C262.089,544.821,263.315,545.866,264.565,546.88C265.816,547.895,267.091,548.878,268.39,549.83C274.39,554.29,280.1,559.47,285.83,564.45C290.33,568.39,294.63,572.55,294.89,579.45C295,582.07,297.47,584.58,298.89,587.19C296.99,588.49,298.08,591.99,295.37,593.11C287.17,590.14,279.87,585.83,275.13,579.16C273.03,578.91,272.05,579.28,271.2,580.22C270.73,580.73,269.98,581,269.02,581.6L254.58,571.65L251.17,574.22C247.96,570.59,244.1,567.32,239.37,565.27C239.191,565.425,239.011,565.58,238.832,565.735C238.653,565.889,238.474,566.044,238.294,566.199C238.115,566.354,237.936,566.509,237.757,566.665C237.578,566.82,237.399,566.975,237.22,567.13C231.22,563.1,224.99,559.8,219.85,554.76C215.03,550.03,211.19,544.01,204.78,541.22C204.07,541.92,203.7,542.16,203.55,542.5C203.47,542.68,203.68,543.1,203.88,543.3C209.11,548.55,214.36,553.79,219.87,559.3C215.21,562.17,214.17,557.15,211.55,555.72L209.45,557.6C204.27,555.63,200.47,551.96,196.89,548.03C188.89,539.25,179.27,532.03,172.71,521.8C170.56,518.46,167.55,515.08,163.41,513.6L163.42,513.5C163.92,510.03,162.34,508.05,159.33,506.49C159.284,506.615,159.24,506.742,159.2,506.869C159.16,506.997,159.124,507.125,159.09,507.255C159.057,507.384,159.027,507.514,159,507.645C158.973,507.776,158.95,507.908,158.93,508.04C158.46,511.31,161.15,512.27,163.38,513.79L163.41,513.61C164.77,520.48,167.59,527.04,169.39,534.61C167.15,532.37,164.86,530.18,162.69,527.87C160.65,525.72,160.81,522.07,157.72,520.59C154.31,518.96,153.97,515.1,152.06,512.39C149.754,509.12,147.506,505.809,145.318,502.459C143.131,499.108,141.003,495.719,138.936,492.293C136.869,488.866,134.864,485.403,132.921,481.905C130.977,478.408,129.097,474.875,127.28,471.31C125.116,467.054,123.078,462.734,121.17,458.357C119.261,453.98,117.483,449.547,115.837,445.065C114.192,440.582,112.679,436.052,111.302,431.48C109.925,426.908,108.684,422.296,107.58,417.65C105.66,409.5,102.97,400.91,104.67,392.05C102.95,395.7,100.97,406.89,102.7,408.76C105.92,412.27,103.55,416.4,105.05,419.55C106.77,423.15,106.39,426.85,107.38,430.3C110.15,439.98,113.7,449.45,117.2,458.9C118.97,463.7,121.65,468.2,121.25,473.57C117.87,472.59,117.63,469.15,116.72,466.77C113.11,457.35,108.25,448.37,106.47,437.91C104.28,440.35,104.39,443.46,101.31,445.21C96.54,437.58,95.45,428.7,93.27,420.32C90.83,410.92,89.53,401.22,87.29,389.25C85.26,407.52,86.32,411.43,89.79,427.29C91.22,433.8,94.78,440.6,92.03,449.59C91.1152,446.068,90.2446,442.535,89.4184,438.992C88.5922,435.448,87.8105,431.894,87.0735,428.331C86.3366,424.768,85.6443,421.195,84.997,417.615C84.3497,414.034,83.7473,410.446,83.19,406.85C81.19,394.12,82.59,381.62,81.32,369.1C80.65,362.5,83.78,356.44,83.52,350.17C83.25,343.57,84.93,337.44,86.26,331.27C87.54,325.32,90.17,319.65,92.28,313.89C95,306.43,97.31,298.77,100.68,291.62C103.32,286.06,102.82,279.54,107.75,274.51C111.65,270.52,113.55,264.56,116.2,259.4C116.62,258.56,116.26,257.32,116.26,254.87C108.73,261.66,105.01,270.15,98.96,276.79C96.89,274.43,98.58,273.26,99.32,271.49C100.707,268.152,102.258,264.885,103.969,261.702C105.679,258.518,107.547,255.421,109.565,252.422C111.583,249.424,113.748,246.527,116.053,243.743C118.358,240.959,120.8,238.292,123.37,235.75C126.09,233.06,127.9,229.69,131.47,227.51C135.03,225.33,137.52,221.47,140.74,218.65C142.54,217.08,142.37,215.33,142.34,213.42L142.44,213.42C142.84,213.46,143.22,213.48,143.6,213.48C145.37,213.48,146.95,212.98,148,211.28L148.19,211.29L148.25,211.3C148.279,211.306,148.307,211.314,148.335,211.323C148.362,211.332,148.39,211.343,148.417,211.355C148.444,211.366,148.47,211.379,148.495,211.394C148.521,211.408,148.546,211.423,148.57,211.44L148.6,211.46L148.62,211.47L148.74,211.56L148.78,211.6C149.03,211.82,149.24,212.1,149.48,212.36L149.54,212.42C149.571,212.448,149.602,212.476,149.634,212.502C149.666,212.529,149.699,212.555,149.733,212.58C149.766,212.605,149.8,212.629,149.835,212.652C149.869,212.676,149.904,212.698,149.94,212.72C149.964,212.734,149.988,212.747,150.012,212.759C150.036,212.772,150.061,212.783,150.086,212.794C150.111,212.805,150.136,212.815,150.162,212.824C150.188,212.834,150.214,212.842,150.24,212.85L150.28,212.86L150.34,212.87L150.41,212.89L150.55,212.89L150.62,212.9L150.7,212.9C150.79,212.894,150.879,212.882,150.967,212.866C151.056,212.849,151.143,212.827,151.229,212.8C151.315,212.773,151.399,212.741,151.481,212.704C151.563,212.668,151.643,212.626,151.72,212.58L151.72,206.39C153.18,206.1,155.26,207.07,156.08,205.49C156.25,205.14,156.38,204.67,156.41,204.04C157.08,204.16,157.61,204.02,157.97,203.67C158.037,203.6,158.098,203.525,158.154,203.446C158.21,203.367,158.261,203.284,158.305,203.198C158.349,203.112,158.386,203.022,158.417,202.931C158.448,202.839,158.473,202.745,158.49,202.65C158.5,202.61,158.49,202.57,158.46,202.51C158.451,202.493,158.441,202.476,158.431,202.46C158.421,202.444,158.411,202.428,158.4,202.412C158.389,202.396,158.378,202.38,158.366,202.365C158.354,202.35,158.342,202.335,158.33,202.32C158.16,202.12,157.91,201.93,157.8,201.96C157.705,201.977,157.611,202.002,157.519,202.033C157.428,202.064,157.338,202.101,157.252,202.145C157.166,202.189,157.083,202.24,157.004,202.296C156.925,202.352,156.85,202.413,156.78,202.48C156.43,202.85,156.29,203.37,156.41,204.04C154.95,204.34,152.86,203.37,152.05,204.94C151.87,205.29,151.75,205.76,151.72,206.39L151.6,206.39L151.48,206.38L151.38,206.38L151.13,206.37C146.4,206.32,144.33,209.8,142.34,213.42C141.17,213.42,139.44,212.92,138.92,213.5C133.57,219.55,126,222.92,120.66,229.04C119.91,229.881,119.13,230.696,118.322,231.482C117.514,232.267,116.678,233.024,115.816,233.75C114.954,234.476,114.066,235.17,113.154,235.833C112.242,236.495,111.307,237.125,110.35,237.72C103.73,241.96,100.16,249.57,95.41,255.87C88.65,264.81,83.45,274.78,76.71,283.73C75.91,279.36,78.2,275.84,80.03,272.26C90.53,251.69,102.23,231.96,119.58,216.22C120.38,215.5,121.63,214.9,121.25,213.42C122.31,213.46,123.02,213.14,123.35,212.45C123.54,212.09,123.62,211.63,123.6,211.07C124.27,211.19,124.8,211.05,125.16,210.7C125.227,210.63,125.288,210.555,125.344,210.476C125.4,210.397,125.451,210.314,125.495,210.228C125.539,210.142,125.576,210.052,125.607,209.961C125.638,209.869,125.663,209.775,125.68,209.68C125.69,209.63,125.66,209.56,125.61,209.48C125.47,209.26,125.13,208.96,124.99,208.99C124.895,209.007,124.801,209.032,124.709,209.063C124.618,209.094,124.528,209.131,124.442,209.175C124.356,209.219,124.273,209.27,124.194,209.326C124.115,209.382,124.04,209.443,123.97,209.51C123.62,209.88,123.48,210.41,123.6,211.07C122.53,211.04,121.83,211.36,121.49,212.05C121.31,212.4,121.23,212.86,121.25,213.42C120.08,213.42,118.27,212.93,117.85,213.5C113.35,219.37,106.45,222.37,101.35,227.46C95.01,233.79,87.3,239.26,82.63,246.66C73.11,261.69,61.91,275.66,54.86,292.36C49.96,303.94,43.43,314.82,39.12,326.76C34.85,338.61,28.74,349.68,24.83,361.78C22.48,369.08,16.81,375.19,9.04,378.41C6.09,379.63,2.83,376.87,0,380.04C2.93,375.46,1.11,370.88,1.88,367.06C6.91,360.27,8.36,353.49,3.8,346.36C4.61,339.66,14.29,334.31,5.5,327.57L11.18,316.37C10.59,313.9,9,314.07,7.28,314.25C9.8,300.06,17.8,288.15,23.73,273.49C15.03,278.85,13.81,286.86,9.73,293.01C7.73,289.9,8.14,287.23,11.05,284.95C10.4661,284.601,9.9522,284.147,9.53452,283.611C9.11685,283.074,8.80271,282.464,8.60814,281.813C8.41358,281.161,8.342,280.479,8.39705,279.801C8.4521,279.123,8.63283,278.462,8.93,277.85C16.49,261.35,23.95,244.75,35.33,230.38C36.73,228.6,36.9,227.04,36.88,225.13C37.55,225.25,38.08,225.12,38.44,224.76C38.5068,224.69,38.5685,224.615,38.6244,224.536C38.6804,224.457,38.7306,224.374,38.7745,224.288C38.8185,224.202,38.8562,224.112,38.8872,224.021C38.9182,223.929,38.9426,223.835,38.96,223.74C38.96,223.72,38.96,223.68,38.94,223.64C38.9344,223.626,38.9283,223.613,38.9217,223.6C38.9151,223.587,38.908,223.574,38.9005,223.562C38.893,223.549,38.885,223.537,38.8766,223.525C38.8681,223.513,38.8593,223.501,38.85,223.49C38.8453,223.484,38.8406,223.478,38.8357,223.472C38.8309,223.466,38.8259,223.46,38.8209,223.454C38.8159,223.448,38.8109,223.443,38.8057,223.437C38.8005,223.431,38.7953,223.426,38.79,223.42L38.76,223.37L38.74,223.35C38.58,223.18,38.37,223.03,38.27,223.05C38.1745,223.068,38.0805,223.093,37.9886,223.125C37.8968,223.157,37.8074,223.195,37.7211,223.24C37.6348,223.285,37.552,223.336,37.4731,223.393C37.3943,223.45,37.3197,223.512,37.25,223.58C36.9,223.94,36.76,224.46,36.88,225.13L15.78,241.55C15.78,240.38,15.28,238.79,15.86,238.11C24.3,228.17,31.21,217.1,39.36,206.9C50.98,192.35,64.26,179.52,77.83,167.15C90.73,155.38,104.97,144.71,121.76,138.43C122.9,138,123.84,137.56,123.14,136.25C124.44,136.01,125.64,136.29,126.61,136C127.28,135.8,127.87,135.3,128.31,134.13C127.31,133.97,126.38,133.63,125.43,133.94C124.63,134.18,123.77,134.8,122.76,136.21C114.82,135.95,108.34,140.94,101.92,145.11C88.02,154.16,73.59,162.64,62.28,175.15C60.98,176.58,59.39,175.62,57.97,175.92C65.8,164.4,77.7,157.34,88.9,147.8L79.05,147.8C83.09,139.43,93.14,138.41,98.59,131.77C109.49,128.47,117.43,119.59,128.99,116.54C125.8,114.37,123.77,115.14,121.02,116.14C109.38,120.39,99.02,127,88.14,132.67C85.34,134.12,82.81,136.94,79.05,136.07C78.77,134.1,80.44,133.13,81.57,132.51C93.3,126.05,104.65,118.58,117.04,113.77C130.46,108.56,144.17,103.47,158.51,101.17C161.89,100.62,164.31,97.87,168.04,98.47C171.46,99,175.43,99.58,178.47,98.39C187.8,94.72,197.37,97.05,206.78,96.17C213.32,95.57,219.02,99.59,225.71,98.74C231.84,97.97,238.45,97.42,244.31,98.9C245.885,99.3233,247.479,99.6759,249.086,99.957C250.693,100.238,252.311,100.447,253.937,100.584C255.563,100.72,257.193,100.784,258.825,100.775C260.456,100.766,262.086,100.684,263.71,100.53C253.69,95.87,245.91,91.2,235.51,91.2C240.13,89.67,251.51,87.9,253.51,89.35C257.97,92.58,263.32,92.62,268.11,93.52C273.04,94.44,276.61,98.22,281.31,98.44C286.7,98.7,289.98,104.54,295.71,103.27C297.91,106.55,301.85,107.42,304.71,109.78C311.14,115.1,318.84,117.52,326.73,119.48L327.49,119.68C327.43,121.24,328.16,122.02,329.69,122.02L329.83,122.02C329.78,123.59,330.51,124.37,332.03,124.36L332.18,124.36C332.14,125.42,332.46,126.13,333.15,126.46C333.51,126.65,333.97,126.73,334.53,126.71C334.44,127.18,334.49,127.59,334.65,127.91C334.87,128.35,335.3,128.65,335.92,128.79C336.1,128.83,336.65,128.28,336.61,128.09C336.56,127.89,336.51,127.72,336.42,127.56C336.08,126.86,335.44,126.55,334.52,126.7C334.56,125.64,334.24,124.94,333.55,124.6C333.443,124.552,333.333,124.511,333.221,124.477C333.109,124.443,332.995,124.416,332.88,124.395C332.764,124.375,332.648,124.362,332.531,124.356C332.414,124.35,332.297,124.352,332.18,124.36C332.24,122.79,331.51,122,329.98,122.01L329.83,122.01C329.89,120.44,329.16,119.66,327.64,119.67L327.5,119.67C325.19,114.04,317.95,113.84,315.27,108.61C306.46,105.67,300.13,98.49,291.87,94.73C285.27,91.73,278.77,88.77,272.52,85.01C267.72,82.12,261.68,80.75,256.02,80.06C251.52,79.5,246.97,78.46,243.58,76.3C239.33,73.57,234.95,76.32,230.51,73.75C226.44,71.39,220.28,72.65,215.07,71.57C223.93,71.23,232.82,68.22,241.59,72.34C242.87,72.94,244.57,72.79,246.07,72.77C258.8,72.62,270.64,76.86,282.42,80.81C284.64,81.55,286.7,81.76,290.17,82.44C290.167,82.454,290.165,82.468,290.162,82.4821C290.16,82.4962,290.158,82.5104,290.156,82.5246C290.155,82.5388,290.153,82.553,290.152,82.5672C290.151,82.5815,290.15,82.5957,290.15,82.61L290.15,82.7C290.15,82.84,290.16,83.02,290.2,83.22C290.36,83.98,290.82,84.42,291.28,84.54C292.2,84.86,293.49,84.49,294.52,83.57C294.12,83.11,293.49,82.29,293.34,82.24L293.32,82.24C292.86,82.52,292.11,82.28,291.45,82.12C285.57,76.86,279.51,75.13,274.49,73.32C268.94,71.32,264.14,67.69,258.65,66.39C253.31,65.13,248.05,63.79,242.85,62.08C238.35,60.6,233.61,58.91,229.01,58.99C224.61,59.07,221.36,56.07,217.1,56.3C213.43,56.5,209.96,55.67,206.24,54.46C200.77,52.68,194.2,55.04,188.62,51.7C177.48,53.07,166.82,47.84,155.65,49.34C147.24,50.46,139.35,46.69,130.89,46.53C124.7,46.41,119.28,40.77,114.13,36.55L116.58,34.1C114.39,32.38,110.53,32.38,109.9,28.6L140.87,28.6C143.24,26.31,140.52,25.99,139.99,24.22C146.69,22.52,153.59,24.44,160.2,23.26C161.57,22.48,160.95,21.18,161.23,19.21C170.51,20.14,179.28,16.16,188.87,16.29C198.27,16.42,207.52,17.79,216.95,18.3C210.55,14.24,203.35,12.72,194.87,11.19C213.55,5.78,210.83,6.43,231.18,9.35C243.97,11.18,256.28,14.09,268.28,18.78C269.78,19.36,272.13,19.61,273.59,17.72C265.44,13.16,256.09,10.44,250.16,2.48C258.33,0.85,265.4,5.32,272.46,7.69C287.36,12.69,302.06,18.79,315.93,26.18C330.34,33.85,344.59,41.94,357.73,52.04C365.25,57.83,370.86,65.62,379.06,70.45C379.02,71.52,379.34,72.22,380.03,72.55C380.39,72.74,380.85,72.82,381.41,72.8C381.33,73.28,381.37,73.68,381.53,74C381.75,74.45,382.19,74.74,382.8,74.88C382.98,74.92,383.53,74.38,383.5,74.19C383.45,73.99,383.39,73.81,383.3,73.65C382.97,72.95,382.33,72.65,381.41,72.8C381.45,71.73,381.13,71.03,380.44,70.69C380.332,70.6419,380.222,70.6006,380.109,70.5662C379.996,70.5318,379.881,70.5044,379.765,70.4842C379.649,70.464,379.531,70.451,379.414,70.4453C379.296,70.4396,379.178,70.4411,379.06,70.45C379.08,68.56,378.96,66.98,377.53,65.23C370.93,57.18,362.44,51.17,354.35,45.03C345.39,38.2,335.62,32.29,326.45,25.7C321.52,22.16,314.75,21.98,311.09,16.55C317.89,15.71,322.83,19.95,328.06,23.07C335.83,27.69,343.33,32.78,351,37.59C351.55,37.94,352.5,37.64,353.29,37.64C353.2,38.12,353.25,38.52,353.41,38.84C353.63,39.29,354.06,39.59,354.68,39.73L354.7,39.73C354.9,39.73,355.4,39.21,355.37,39.03C355.32,38.83,355.27,38.65,355.18,38.49C354.84,37.79,354.2,37.49,353.28,37.64L353.28,30.61C360.32,34.01,366.31,38.83,372.48,43.6C380.08,49.47,386.82,56.12,393.7,62.72C394.36,63.35,395.7,63.27,398.9,64.04C394.57,59.21,390.54,56.24,388.69,52.26C386.55,47.68,382.47,46.31,379.33,43.41C373.43,37.97,366.95,32.93,362.66,25.92C363.83,25.92,365.56,25.42,366.09,26C376.47,37.61,390.11,45.56,399.57,58.58C408.07,70.29,416.63,81.96,424.91,93.86C431.65,103.54,436.01,114.2,439.98,125.11C443.1,133.68,446.32,142.13,447.54,151.37C447.92,154.27,450.54,157.81,452.16,161.05C454.48,165.7,456.81,170.37,456.32,175.68C455.98,179.42,458.78,181.75,459.97,186.68C460.377,185.331,460.702,183.958,460.943,182.57C461.184,181.181,461.34,179.779,461.412,178.372C461.483,176.964,461.47,175.554,461.371,174.148C461.272,172.742,461.088,171.344,460.82,169.96C459.96,164.9,457.32,160.18,460.41,153.43C461.04,159.46,462.71,163.79,465.41,167.65C470.12,193.58,468.91,219.47,464.34,245.95C465.64,247.23,467.66,249.19,463.44,250.92C463.46,250.82,463.473,250.718,463.477,250.616C463.482,250.514,463.479,250.412,463.468,250.31C463.457,250.208,463.438,250.108,463.411,250.009C463.385,249.91,463.351,249.814,463.31,249.72C463.09,249.27,462.66,248.97,462.04,248.83C461.89,248.8,461.51,249.15,461.39,249.38L461.37,249.42C461.366,249.428,461.363,249.436,461.36,249.444C461.357,249.452,461.354,249.46,461.353,249.469C461.351,249.477,461.35,249.486,461.35,249.494C461.349,249.503,461.349,249.511,461.35,249.52C461.4,249.72,461.45,249.9,461.54,250.07C461.87,250.77,462.51,251.07,463.44,250.91C464.51,255.43,460.79,259.14,460.39,265.13L460.04,265.19C459.28,265.34,458.84,265.81,458.73,266.27C458.4,267.18,458.77,268.47,459.69,269.5C460.15,269.1,460.97,268.47,461.03,268.32L461.03,268.3C461.019,268.284,461.009,268.267,460.999,268.25C460.99,268.233,460.981,268.216,460.973,268.199C460.964,268.181,460.956,268.163,460.949,268.145C460.942,268.127,460.936,268.109,460.93,268.09C460.925,268.068,460.921,268.046,460.917,268.023C460.913,268.001,460.91,267.978,460.907,267.956C460.905,267.933,460.903,267.911,460.902,267.888C460.901,267.865,460.9,267.843,460.9,267.82C460.898,267.753,460.898,267.685,460.901,267.618C460.904,267.55,460.91,267.483,460.918,267.416C460.927,267.349,460.938,267.283,460.951,267.216C460.965,267.15,460.981,267.085,461,267.02L461.03,266.88L461.06,266.78L461.06,266.73L461.08,266.67C466.4,261.9,464.11,255.34,468.06,252.17C468.56,243.63,472.06,235.76,473.28,227.27C474.54,218.54,473.86,209.72,475.52,201.31C476.85,194.53,476.82,187.84,477.69,181.15C478.37,175.89,474.59,172.02,474.92,166.87C475.18,162.59,477.25,157.52,472.92,153.76C474.5,147.01,468.82,140.86,471.54,131.89C474.67,143.05,477.68,152.19,479.73,161.53C481.87,171.3,485.03,180.9,484.63,191.18C484.21,201.6,484.53,212.04,485.27,222.56C488.12,218.16,485.11,212.27,489.22,208.34C489.07,193.79,493.01,179.48,491.68,164.81C491.24,159.94,488.41,155.76,489.03,150.55C489.6,145.82,490.46,140.6,486.88,136.31C487.74,125.67,483.2,115.85,482.04,105.49C481.27,98.63,478.86,91.97,477.56,85.15C476.25,78.31,475.63,71.39,473.15,64.72C471.63,60.67,473.8,55.76,470.61,51.67C469.69,50.49,470.81,48.32,471.9,46.48C474.13,42.74,476.34,38.67,475.1,34.4C476.13,32.66,477.38,33.02,478.49,32.95C480.77,32.17,478.98,29.18,481.54,28.05C480.94,32.66,486.77,33.91,486.64,37.55C486.47,41.62,488.78,44.62,489.34,48.29C489.91,52.12,491.57,55.09,495.64,57.35C500.56,60.08,498.5,66.85,501.58,71.12C501.98,74.34,507.26,70.99,507.64,75.56L507.64,82.92C509.54,85.38,511.65,84.17,514.02,84.65C515.063,87.9155,516.028,91.2055,516.913,94.5172C517.799,97.8289,518.605,101.161,519.331,104.512C520.058,107.862,520.703,111.229,521.268,114.61C521.833,117.991,522.317,121.386,522.72,124.79C525.35,120.88,524.12,117.25,524.32,113.9C524.54,110.49,524.37,107.06,524.37,103.15C528.66,104.74,524.97,108.61,527.79,110.11L530.49,107.84C533.54,118.61,537.37,129.06,536.09,140.46C541.19,150.96,536.77,162.37,539.52,176.33L540.87,169.16C541.38,163.36,546.25,157.22,545.75,150.16L548.95,150.16C550.98,161.61,550.47,178.6,548.15,188.58C547.55,191.15,547.52,194,547.88,196.64C549.31,207.06,546.82,217.31,544.96,227.2C543.38,235.58,542.18,244.33,538.76,252.62C535.5,260.57,534.29,269.42,529.82,277.01C528.47,279.3,529.5,281.52,529.06,283.73C528.13,283.78,527.56,284.01,527.2,284.36C526.23,285.3,526.98,287.12,526.71,288.42C526.11,288.32,525.61,288.42,525.26,288.7L525.25,288.72L525.23,288.73C525.06,288.87,524.93,289.05,524.82,289.27C524.74,289.44,524.68,289.62,524.63,289.82L524.64,289.89L524.67,289.96L524.73,290.05L524.73,290.07L524.75,290.09L524.91,290.26C525.01,290.36,525.12,290.44,525.21,290.48C525.25,290.5,525.29,290.51,525.32,290.5C525.94,290.37,526.37,290.07,526.59,289.63C526.75,289.3,526.79,288.9,526.71,288.43C527.65,288.37,528.23,288.13,528.58,287.79C529.55,286.84,528.8,285.04,529.06,283.73C533.96,277.93,537.24,271.36,538.42,263.83C538.54,263.07,538.11,262.03,538.49,261.53C545.96,251.94,544.85,239.37,549.87,228.94C549.03,220.59,554.74,213.1,552.51,204.56C555.17,210.31,554.23,210.2,552.93,221.63C552.25,227.57,550.37,233.23,549.93,239.23C549.48,245.23,547.17,251.09,545.6,257.33C548.15,257.45,549.92,254.57,552.5,255.61C552.7,265.83,548.6,274.93,544.1,283.63C541.12,289.43,540.85,296.33,536.23,301.46C535.27,302.54,536.09,305.22,536.09,307.17C535.42,307.06,534.89,307.19,534.53,307.55C534.463,307.62,534.402,307.695,534.346,307.774C534.29,307.853,534.239,307.936,534.195,308.022C534.151,308.108,534.114,308.198,534.083,308.289C534.052,308.381,534.027,308.475,534.01,308.57C533.99,308.63,534.05,308.75,534.15,308.87L534.21,308.93L534.27,308.99C534.41,309.14,534.58,309.26,534.67,309.26L534.7,309.26C534.795,309.242,534.89,309.217,534.981,309.185C535.073,309.153,535.163,309.115,535.249,309.07C535.335,309.025,535.418,308.974,535.497,308.917C535.576,308.86,535.65,308.798,535.72,308.73L535.77,308.67L535.8,308.64L535.82,308.61C536.09,308.26,536.19,307.78,536.09,307.17C540.39,304.18,541.38,298.87,544.27,294.87C545.001,293.848,545.683,292.793,546.314,291.707C546.946,290.622,547.526,289.507,548.052,288.367C548.579,287.226,549.051,286.062,549.468,284.877C549.885,283.692,550.246,282.489,550.55,281.27C551.53,277.32,552.98,272.37,557.19,269.67C557.58,275.06,555.01,279.59,553.09,284.36C547.75,297.6,540.29,309.66,532.32,321.38C523.2,334.78,513.92,348.17,501.71,359.01C499.684,360.837,497.634,362.637,495.56,364.409C493.486,366.181,491.388,367.926,489.268,369.643C487.148,371.359,485.005,373.048,482.84,374.707C480.675,376.367,478.488,377.998,476.28,379.6C471.34,383.12,467.8,388.06,462.64,391.25C457.64,394.34,452.41,397.34,448.21,401.35C446.34,403.13,442.38,401.78,442.34,405.61C441.67,405.5,441.14,405.63,440.78,405.99C440.714,406.059,440.652,406.133,440.597,406.212C440.541,406.29,440.491,406.372,440.447,406.457C440.403,406.543,440.365,406.631,440.334,406.722C440.303,406.813,440.278,406.906,440.26,407L440.26,407.09L440.38,407.28L440.56,407.47C440.582,407.491,440.605,407.512,440.628,407.532C440.652,407.551,440.676,407.57,440.701,407.587C440.726,407.605,440.752,407.622,440.779,407.637C440.805,407.652,440.832,407.667,440.86,407.68L440.89,407.68L440.89,407.69L440.95,407.69C441.051,407.671,441.151,407.644,441.248,407.609C441.345,407.575,441.44,407.533,441.53,407.483C441.621,407.434,441.708,407.378,441.79,407.316C441.872,407.253,441.949,407.184,442.02,407.11L442.05,407.08L442.07,407.05C442.35,406.7,442.44,406.21,442.34,405.61C446.64,406.54,449.98,403.89,453.6,402.47C458.5,400.54,462.36,396.2,468.12,396.23C464.12,401.67,458.19,404.58,452.75,408.21C442.98,414.75,431.91,418.17,421.01,421.9C412.44,424.82,403.51,426.73,394.73,429.02C392.65,429.56,391.01,428.59,389.76,426.74L384.33,431.83L362.92,431.83C370.26,434.07,377.77,433.06,385.12,433.87C393.65,434.81,401.49,431.37,409.86,431.03C417.67,430.71,425.28,426.93,433.12,425.49C449.52,422.47,463.31,413.61,477.8,406.32C479.4,405.52,480.75,405.92,482.19,405.61C478.33,412.46,470.88,415.41,464.83,418.76C453.87,424.84,442.98,431.82,430.56,434.8C422.02,436.85,413.76,440.07,404.9,440.83C399.4,441.3,394.45,444.79,388.53,443.74C395.9,445.03,403.06,447.26,410.32,443.67C412.21,442.73,414.82,443.15,417.11,443.12C433.97,442.9,449.44,437.25,465.01,431.52C475.93,427.52,486.61,422.92,496.51,417.12C511.89,408.09,528.39,401.04,542.99,390.62C548.62,386.62,554.77,383.32,560.77,379.85C568.52,375.38,576.94,374.42,585.77,375.03C589.32,375.28,591.45,378.01,594.47,378.6C588.58,387.1,577.64,389.47,571.24,397.65L576.02,399.45C571.75,405.29,562.72,404.62,559.95,411.89L561.75,413.69C558.96,418.06,552.41,418.19,550.57,423.59L552.54,425.57C542.02,434.69,529.87,440.94,517.01,446.44C519.87,448.5,521.98,448.3,524.66,446.54C528,444.32,531.69,442.25,536.09,443.1C534.89,445.77,532.77,448.17,533.5,450.83C514.77,463.81,493.82,471.63,472.87,479.95C482.86,479.3,492.77,476.91,503.18,478.77C499.04,483.01,493.45,483.07,488.8,485.15C483.9,487.35,478.55,489.17,473.24,489.78C467.59,490.42,463.06,494.34,457.65,494.5C451.89,494.67,446.87,496.54,441.79,498.72C436.21,501.12,430.13,497.98,424.09,501.31C419.49,503.84,412.75,500.35,407.24,502.85C401.67,505.37,395.86,503.67,390.18,503.98C384.35,504.28,378.48,504.24,372.64,503.98C367.16,503.75,362.07,499.82,356.21,502.25C356.28,505.44,358.77,503.9,360.07,503.95C362.47,504.05,364.32,504.43,366.28,506.17C367.38,507.15,370.02,506.38,371.97,506.38L423.43,506.39C430.61,506.4,437.33,502.28,444.69,504.04C444.69,504.44,444.76,505.14,444.68,505.17C438.94,506.39,433.2,508.49,427.44,508.53C416.03,508.62,405.1,513.04,391.93,510.6C399.32,517.86,407.27,514.67,414.04,517.05C405.84,518.45,397.57,518.01,389.34,518.09C380.77,518.17,372.19,517.99,363.63,518.14C355.48,518.28,347.63,513.07,338.31,517.18C351.96,519.53,364.31,524,377.57,522.79C390.09,527.69,403.32,523.68,417.77,525.73C411.45,528.84,406.27,527.08,401.38,527.39C395.56,527.77,389.69,527.51,383.85,527.47C378.61,527.44,373.55,527.44,368.37,525.37C363.59,523.44,358.07,526.12,352.67,523.72C347.77,521.53,341.86,521.71,336.51,520.38C331.61,519.16,326.88,517.32,322.07,515.76C317.27,514.2,312.47,512.61,307.64,511.08C302.44,509.43,297.82,506.57,292.96,504.16C288.42,501.91,283.99,499.47,279.46,497.23C274.78,494.92,271.03,491.03,266.47,489.11C261.08,486.86,258.4,481.6,252.91,479.51C248.25,477.74,246.86,470.15,240.07,471.31C232.77,465.46,227.5,457.59,219.68,452.47C219.84,451.56,219.53,450.92,218.83,450.58C218.787,450.559,218.743,450.539,218.699,450.521C218.655,450.503,218.611,450.485,218.565,450.47C218.52,450.454,218.475,450.439,218.429,450.426C218.383,450.413,218.337,450.401,218.29,450.39L218.27,450.39C218.07,450.39,217.57,450.91,217.6,451.09C217.74,451.7,218.04,452.14,218.48,452.35C218.8,452.51,219.2,452.55,219.68,452.47C220.45,458.34,224.38,462.38,227.98,466.55C230.48,469.45,233.38,472.03,236.11,474.77C234.26,476.59,232.51,476.35,231.21,474.49C228.51,470.61,223.57,469.61,220.62,466.22C210.65,454.74,200.91,443,194.04,429.35C193.217,427.737,192.387,426.129,191.548,424.524C190.71,422.919,189.864,421.318,189.011,419.721C188.158,418.125,187.297,416.532,186.428,414.943C185.56,413.355,184.684,411.77,183.8,410.19C180.06,403.39,177.12,395.63,177.17,386.59C175.02,392.65,175.19,392.59,177.46,400.98C180.87,413.56,185.35,425.68,191.44,437.25C195.47,444.92,199.68,452.5,203.62,460.2C207.15,467.08,213.54,472.5,218.77,478.49C224.33,484.85,231.43,489.79,236.09,497.01L236.17,497.01C237.74,496.98,238.5,497.76,238.44,499.36C236.82,499.42,236.04,498.64,236.09,497.01ZM173.98,539.21C175.08,539.98,175.08,540.76,173.98,541.53C172.89,540.76,172.89,539.98,173.98,539.21ZM444.09,502.93C447.71,501.08,450.78,501.47,454.69,502.57C450.87,504.77,447.79,504.51,444.09,502.93ZM238.45,499.37C239.57,499.17,240.28,499.68,240.53,500.75C240.56,500.93,240.02,501.48,239.83,501.45C238.76,501.2,238.25,500.49,238.45,499.37ZM256.02,492.34C257.11,493.11,257.11,493.89,256.02,494.65C254.92,493.89,254.92,493.11,256.02,492.34ZM130.63,489.99C131.76,489.79,132.47,490.31,132.71,491.38C132.75,491.56,132.21,492.11,132.02,492.07C130.95,491.82,130.43,491.12,130.63,489.99ZM128.28,487.64C129.9,487.58,130.68,488.36,130.62,489.98C129,490.04,128.22,489.26,128.28,487.64ZM128.28,487.64C124.78,487.44,126.28,484.73,125.94,482.94C129.44,483.15,127.93,485.86,128.28,487.64ZM243.13,482.96C244.26,482.76,244.97,483.28,245.21,484.35C245.25,484.53,244.71,485.08,244.52,485.04C243.45,484.79,242.93,484.09,243.13,482.96ZM243.13,482.95C241.5,483.01,240.73,482.23,240.78,480.61C242.4,480.55,243.18,481.33,243.12,482.95ZM123.59,478.26C127.1,478.46,125.59,481.17,125.94,482.95C122.44,482.75,123.94,480.04,123.59,478.26ZM240.77,480.6C239.64,480.8,238.93,480.28,238.69,479.2C238.65,479.03,239.2,478.48,239.39,478.52C240.45,478.77,240.97,479.47,240.77,480.6ZM123.59,478.26C120.09,478.06,121.6,475.36,121.25,473.57C124.75,473.77,123.25,476.49,123.59,478.27ZM96.69,462.01C95.02,460.21,95.1,458.91,96.27,457.45C98.85,458.35,98.14,459.85,96.7,462.01ZM94.29,450.11C96,451.7,96,453.26,94.29,454.85C92.59,453.26,92.59,451.7,94.29,450.11ZM103.67,447.77C105.37,449.36,105.37,450.92,103.67,452.51C101.97,450.91,101.97,449.36,103.67,447.77ZM536.1,443.1C535.9,441.97,536.42,441.26,537.5,441.02C537.67,440.98,538.22,441.53,538.18,441.71C537.94,442.78,537.23,443.3,536.1,443.1ZM489.22,400.92C488.3,404.62,485.82,405.98,482.19,405.61C483.11,401.91,485.59,400.54,489.22,400.91ZM489.22,400.92C489.16,399.3,489.94,398.52,491.56,398.57C491.62,400.2,490.84,400.98,489.22,400.92ZM491.57,398.56C491.37,397.44,491.89,396.73,492.96,396.49C493.14,396.45,493.69,396.99,493.65,397.18C493.41,398.25,492.7,398.76,491.57,398.56ZM468.13,396.22C467.93,395.1,468.45,394.39,469.53,394.14C469.7,394.11,470.25,394.65,470.21,394.84C469.97,395.9,469.26,396.42,468.13,396.22ZM499.77,372.8C500.86,373.57,500.86,374.36,499.77,375.12C498.67,374.36,498.67,373.57,499.77,372.81ZM72.97,292.94C71.52,291.31,71.43,289,73.33,288.62C75.72,288.14,73.67,290.7,74.31,291.73C74.36,291.83,73.46,292.5,72.97,292.93ZM74.37,288.42C74.72,286.64,73.21,283.93,76.72,283.73C76.37,285.51,77.88,288.22,74.38,288.42ZM91.95,288.4C90.85,287.64,90.85,286.86,91.95,286.09C93.05,286.86,93.05,287.64,91.95,288.4ZM94.3,281.4C95.39,282.17,95.39,282.95,94.3,283.72C93.2,282.95,93.2,282.17,94.3,281.4ZM559.53,264.98C559.18,266.76,560.69,269.48,557.19,269.68C557.54,267.89,556.02,265.18,559.53,264.98ZM461.23,265.63L461.23,265.58C461.23,265.584,461.23,265.588,461.23,265.592C461.231,265.597,461.231,265.601,461.231,265.605C461.231,265.609,461.231,265.613,461.23,265.618C461.23,265.622,461.23,265.626,461.23,265.63L461.23,265.7L461.24,265.7L461.24,265.94L461.23,265.96L461.23,266.02L461.22,266.03L461.22,266.07L461.21,266.1L461.21,266.11L461.2,266.18L461.2,266.11L461.21,266.07L461.21,266.03L461.23,265.99L461.23,265.85L461.24,265.82L461.24,265.63ZM461.11,265.31L461.09,265.29L461.1,265.31L461.11,265.31L461.11,265.32L461.12,265.33L461.13,265.34L461.14,265.36L461.15,265.36L461.15,265.38L461.16,265.38L461.16,265.4L461.17,265.4L461.17,265.42L461.18,265.42L461.18,265.44L461.19,265.44L461.19,265.46L461.2,265.48L461.2,265.49L461.22,265.53L461.21,265.5L461.21,265.48L461.2,265.47L461.19,265.45L461.19,265.44L461.18,265.42L461.18,265.4L461.16,265.39L461.16,265.38L461.14,265.36L461.14,265.35L461.13,265.33L461.12,265.33L461.11,265.31ZM461.01,265.23ZM460.9,265.17ZM559.53,264.98C560.43,262.68,557.36,259.05,561.88,257.95C560.98,260.25,564.05,263.88,559.53,264.98ZM561.88,257.95C562.77,255.65,559.7,252.02,564.22,250.92C563.32,253.22,566.39,256.85,561.87,257.95ZM552.79,255.25L552.79,248.65C554.97,252.55,554.97,252.55,552.79,255.25ZM565.62,246.4C567.08,248.03,567.16,250.33,565.27,250.72C562.87,251.2,564.92,248.64,564.29,247.6C564.23,247.51,565.13,246.84,565.62,246.4ZM15.77,241.56C15.97,242.68,15.45,243.39,14.38,243.63C14.2,243.67,13.65,243.13,13.69,242.94C13.93,241.87,14.64,241.35,15.77,241.56ZM567.73,241.52C566.64,240.76,566.64,239.98,567.73,239.22C568.83,239.98,568.83,240.76,567.73,241.52ZM43.9,190C44.1,191.13,43.59,191.84,42.52,192.08C42.34,192.12,41.79,191.58,41.82,191.39C42.07,190.32,42.78,189.8,43.9,190ZM46.26,187.65C46.32,189.27,45.54,190.05,43.92,189.99C43.86,188.37,44.64,187.59,46.26,187.65ZM46.26,187.65C46.2,186.03,46.98,185.25,48.6,185.31C48.66,186.93,47.88,187.71,46.26,187.65ZM50.95,182.96C51.01,184.58,50.23,185.36,48.6,185.31C48.54,183.68,49.33,182.91,50.95,182.96ZM53.29,180.62C53.35,182.24,52.57,183.02,50.95,182.96C50.89,181.34,51.67,180.56,53.29,180.62ZM55.63,178.27C55.69,179.9,54.91,180.67,53.29,180.62C53.23,179,54.01,178.22,55.63,178.27ZM55.63,178.27C55.58,176.65,56.36,175.87,57.98,175.93C58.04,177.55,57.26,178.33,55.64,178.27ZM79.06,147.82C79.26,148.94,78.74,149.65,77.67,149.89C77.49,149.93,76.94,149.39,76.98,149.2C77.23,148.13,77.93,147.61,79.06,147.82ZM62.66,147.82C62.86,148.94,62.34,149.65,61.26,149.89C61.09,149.93,60.54,149.39,60.58,149.2C60.82,148.13,61.53,147.61,62.65,147.82ZM62.66,147.81C62.61,146.18,63.39,145.41,65.01,145.46C65.07,147.08,64.29,147.86,62.67,147.81ZM65.02,145.45C64.82,144.33,65.33,143.62,66.41,143.38C66.59,143.33,67.13,143.88,67.1,144.07C66.85,145.13,66.14,145.65,65.02,145.45ZM72.02,140.78C72.23,141.91,71.72,142.62,70.64,142.86C70.46,142.9,69.91,142.36,69.95,142.17C70.19,141.1,70.9,140.58,72.03,140.78ZM72.04,140.78C71.98,139.15,72.76,138.38,74.38,138.43C74.44,140.05,73.66,140.83,72.04,140.77ZM79.07,136.08C78.87,139.59,76.16,138.08,74.38,138.43C74.58,134.93,77.29,136.44,79.08,136.09ZM455.24,136.11C456.34,136.87,456.34,137.65,455.24,138.41C454.15,137.65,454.15,136.87,455.24,136.11ZM131.81,131.41C130.75,132.15,130.71,132.9,131.68,133.63L131.81,133.73C132.51,133.23,132.76,132.73,132.56,132.24C132.556,132.232,132.552,132.223,132.548,132.215C132.544,132.206,132.54,132.198,132.536,132.19C132.532,132.181,132.527,132.173,132.523,132.165C132.519,132.156,132.514,132.148,132.51,132.14L132.51,132.12L132.49,132.1L132.47,132.07C132.436,132.023,132.401,131.978,132.365,131.934C132.328,131.89,132.29,131.847,132.251,131.805C132.212,131.763,132.171,131.722,132.129,131.683C132.087,131.644,132.044,131.606,132,131.57L131.9,131.49L131.8,131.42ZM452.91,131.38C451.81,130.62,451.81,129.84,452.91,129.08C453.99,129.84,453.99,130.62,452.91,131.38ZM224.21,88.09C226.01,86.42,227.31,86.49,228.77,87.66C227.87,90.24,226.37,89.53,224.21,88.09ZM199.03,85.99C201.9,84.26,204.76,84.1,208.73,85.43C204.89,87.71,201.87,86.35,199.03,85.99ZM291.12,82.06L291.08,82.06L291.12,82.06ZM290.69,82.03C290.695,82.0302,290.7,82.0304,290.705,82.0305C290.71,82.0306,290.715,82.0306,290.72,82.0306C290.725,82.0306,290.73,82.0306,290.735,82.0305C290.74,82.0304,290.745,82.0302,290.75,82.03L290.69,82.03ZM353.26,30.6C352.14,30.8,351.43,30.28,351.18,29.21C351.14,29.03,351.69,28.48,351.88,28.52C352.95,28.77,353.46,29.47,353.26,30.6ZM347.41,25.94C348.51,26.7,348.51,27.48,347.41,28.24C346.31,27.48,346.31,26.7,347.41,25.94ZM360.31,23.58C361.93,23.52,362.71,24.3,362.65,25.92C361.02,25.98,360.24,25.2,360.3,23.58ZM360.29,23.57C359.17,23.77,358.46,23.25,358.22,22.18C358.17,22,358.72,21.45,358.91,21.49C359.98,21.73,360.49,22.44,360.29,23.57ZM353.29,18.9C354.41,18.7,355.11,19.22,355.36,20.29C355.4,20.47,354.85,21.02,354.66,20.98C353.6,20.73,353.08,20.02,353.28,18.9ZM353.27,18.89C351.65,18.95,350.87,18.17,350.93,16.55C352.55,16.49,353.33,17.27,353.27,18.89ZM350.92,16.53C349.79,16.73,349.08,16.22,348.84,15.15C348.8,14.96,349.34,14.42,349.54,14.45C350.6,14.7,351.12,15.41,350.92,16.53ZM311.07,16.53C309.95,16.73,309.24,16.22,309,15.15C308.96,14.96,309.5,14.42,309.69,14.45C310.76,14.7,311.27,15.41,311.07,16.53ZM306.22,13.26C304.6,14.72,302.3,14.8,301.92,12.91C301.42,10.51,303.99,12.56,305.02,11.93C305.12,11.87,305.8,12.77,306.22,13.26ZM343.91,11.86C345.03,11.66,345.74,12.18,345.98,13.26C346.02,13.44,345.48,13.99,345.29,13.95C344.22,13.7,343.7,12.99,343.91,11.87ZM297.19,10.46C298.82,9,301.12,8.92,301.51,10.81C301.99,13.21,299.43,11.15,298.39,11.79C298.3,11.85,297.62,10.95,297.19,10.46ZM343.89,11.85C342.76,12.05,342.05,11.53,341.81,10.46C341.77,10.28,342.31,9.73,342.5,9.77C343.57,10.02,344.09,10.72,343.88,11.85ZM245.63,1.08C247.25,-0.38,249.56,-0.46,249.94,1.43C250.42,3.83,247.86,1.78,246.84,2.42C246.74,2.47,246.06,1.57,245.63,1.08Z" fill="#D60D4C" transform="translate(330,330) translate(-297.235,-296.553)" style="animation: a0_t 3.8s linear infinite both;"/>
</svg>
